# xmcd
# Copyright (C) 1995-1998 Ti Kan
#
# Track frame offsets:
#       150
#       21548
#       40155
#       54437
#       70569
#       93481
#       110505
#       127475
#       149892
#       169385
#       188835
#       211873
#
# Disc length: 3146 seconds
#
# Revision: 0
# Processed by: cddbd v1.5.2PL0 Copyright (c) Steve Scherf et al.
# Submitted via: CD-Transfer v1.0
#
DISCID=bb0c480c
DTITLE=Blush - Cracking Codes [CD)
DYEAR=08
DGENRE=
TTITLE0=Sleep (Radio Edit)
TTITLE1=Cracking Codes (Radio Edit)
TTITLE2=100 Lies (Radio Edit)
TTITLE3=Hide (Radio Edit)
TTITLE4=Painting Gold (Radio Edit)
TTITLE5=Steal It (Radio Edit)
TTITLE6=Stop To Breathe! (Radio Edit)
TTITLE7=Bleeding For This (Radio Edit)
TTITLE8=Gravity (Radio Edit)
TTITLE9=Secret Star (Radio Edit)
TTITLE10=One More Time (Radio Edit)
TTITLE11=Fly With You (Radio Edit)
EXTD=
EXTT0=
EXTT1=
EXTT2=
EXTT3=
EXTT4=
EXTT5=
EXTT6=
EXTT7=
EXTT8=
EXTT9=
EXTT10=
EXTT11=
PLAYORDER=
